<mxfile host="app.diagrams.net" agent="Mozilla/5.0 (Windows NT 10.0; Win64; x64) AppleWebKit/537.36 (KHTML, like Gecko) Chrome/133.0.0.0 Safari/537.36" version="26.1.0">
  <diagram name="PÃ¡gina-1" id="Uocv44tzLnWSrI23IJnH">
    <mxGraphModel dx="1383" dy="1730" grid="1" gridSize="10" guides="1" tooltips="1" connect="1" arrows="1" fold="1" page="1" pageScale="1" pageWidth="827" pageHeight="1169" math="0" shadow="0">
      <root>
        <mxCell id="0" />
        <mxCell id="1" parent="0" />
        <mxCell id="NuhmkIVnOI-tYHkNNn2N-1" value="Actor" style="shape=umlActor;verticalLabelPosition=bottom;verticalAlign=top;html=1;outlineConnect=0;labelBackgroundColor=none;fillColor=#56517E;strokeColor=#A9C4EB;fontColor=#FFFFFF;" parent="1" vertex="1">
          <mxGeometry x="360" y="260" width="30" height="60" as="geometry" />
        </mxCell>
        <mxCell id="NuhmkIVnOI-tYHkNNn2N-2" value="Actor" style="shape=umlActor;verticalLabelPosition=bottom;verticalAlign=top;html=1;outlineConnect=0;labelBackgroundColor=none;fillColor=#56517E;strokeColor=#A9C4EB;fontColor=#FFFFFF;" parent="1" vertex="1">
          <mxGeometry x="-10" y="220" width="30" height="60" as="geometry" />
        </mxCell>
        <mxCell id="NuhmkIVnOI-tYHkNNn2N-3" value="Actor" style="shape=umlActor;verticalLabelPosition=bottom;verticalAlign=top;html=1;outlineConnect=0;labelBackgroundColor=none;fillColor=#56517E;strokeColor=#A9C4EB;fontColor=#FFFFFF;" parent="1" vertex="1">
          <mxGeometry x="399" y="-20" width="30" height="60" as="geometry" />
        </mxCell>
        <mxCell id="NuhmkIVnOI-tYHkNNn2N-4" value="Ver progreso de proyectos" style="ellipse;whiteSpace=wrap;html=1;labelBackgroundColor=none;fillColor=#56517E;strokeColor=#EEEEEE;fontColor=#FFFFFF;" parent="1" vertex="1">
          <mxGeometry x="160" y="270" width="120" height="80" as="geometry" />
        </mxCell>
        <mxCell id="NuhmkIVnOI-tYHkNNn2N-5" value="Establecer plazos para tareas" style="ellipse;whiteSpace=wrap;html=1;labelBackgroundColor=none;fillColor=#56517E;strokeColor=#EEEEEE;fontColor=#FFFFFF;" parent="1" vertex="1">
          <mxGeometry x="160" y="180" width="120" height="80" as="geometry" />
        </mxCell>
        <mxCell id="NuhmkIVnOI-tYHkNNn2N-6" value="Crear y asignar tareas a empleados" style="ellipse;whiteSpace=wrap;html=1;labelBackgroundColor=none;fillColor=#56517E;strokeColor=#EEEEEE;fontColor=#FFFFFF;" parent="1" vertex="1">
          <mxGeometry x="40" y="110" width="120" height="80" as="geometry" />
        </mxCell>
        <mxCell id="NuhmkIVnOI-tYHkNNn2N-7" value="Comunicarse con otros miembros del equipo" style="ellipse;whiteSpace=wrap;html=1;labelBackgroundColor=none;fillColor=#56517E;strokeColor=#EEEEEE;fontColor=#FFFFFF;" parent="1" vertex="1">
          <mxGeometry x="130" y="-40" width="120" height="80" as="geometry" />
        </mxCell>
        <mxCell id="NuhmkIVnOI-tYHkNNn2N-8" value="Marcar tareas como&lt;div&gt;completadas&lt;/div&gt;" style="ellipse;whiteSpace=wrap;html=1;labelBackgroundColor=none;fillColor=#56517E;strokeColor=#EEEEEE;fontColor=#FFFFFF;" parent="1" vertex="1">
          <mxGeometry x="170" y="-140" width="120" height="80" as="geometry" />
        </mxCell>
        <mxCell id="NuhmkIVnOI-tYHkNNn2N-10" value="Ver tareas&amp;nbsp;&lt;div&gt;asignadas&lt;/div&gt;" style="ellipse;whiteSpace=wrap;html=1;labelBackgroundColor=none;fillColor=#56517E;strokeColor=#EEEEEE;fontColor=#FFFFFF;" parent="1" vertex="1">
          <mxGeometry x="294" y="-160" width="120" height="80" as="geometry" />
        </mxCell>
        <mxCell id="NuhmkIVnOI-tYHkNNn2N-11" value="Crear nuevos proyectos" style="ellipse;whiteSpace=wrap;html=1;labelBackgroundColor=none;fillColor=#56517E;strokeColor=#EEEEEE;fontColor=#FFFFFF;" parent="1" vertex="1">
          <mxGeometry x="470" y="335" width="120" height="80" as="geometry" />
        </mxCell>
        <mxCell id="NuhmkIVnOI-tYHkNNn2N-12" value="Gestionar cuentas&amp;nbsp;&lt;div&gt;de empleados y jefes de proyecto&lt;/div&gt;" style="ellipse;whiteSpace=wrap;html=1;labelBackgroundColor=none;fillColor=#56517E;strokeColor=#EEEEEE;fontColor=#FFFFFF;" parent="1" vertex="1">
          <mxGeometry x="400" y="130" width="120" height="80" as="geometry" />
        </mxCell>
        <mxCell id="NuhmkIVnOI-tYHkNNn2N-13" value="Establecer configuraciones del sistema" style="ellipse;whiteSpace=wrap;html=1;labelBackgroundColor=none;fillColor=#56517E;strokeColor=#EEEEEE;fontColor=#FFFFFF;" parent="1" vertex="1">
          <mxGeometry x="500" y="220" width="120" height="80" as="geometry" />
        </mxCell>
        <mxCell id="NuhmkIVnOI-tYHkNNn2N-15" value="Generar reportes de estado" style="ellipse;whiteSpace=wrap;html=1;labelBackgroundColor=none;fillColor=#56517E;strokeColor=#EEEEEE;fontColor=#FFFFFF;" parent="1" vertex="1">
          <mxGeometry x="50" y="340" width="120" height="80" as="geometry" />
        </mxCell>
        <mxCell id="NuhmkIVnOI-tYHkNNn2N-16" value="" style="endArrow=none;html=1;rounded=0;entryX=1;entryY=1;entryDx=0;entryDy=0;exitX=0.5;exitY=0.5;exitDx=0;exitDy=0;exitPerimeter=0;labelBackgroundColor=none;strokeColor=#182E3E;fontColor=default;" parent="1" source="NuhmkIVnOI-tYHkNNn2N-3" target="NuhmkIVnOI-tYHkNNn2N-8" edge="1">
          <mxGeometry width="50" height="50" relative="1" as="geometry">
            <mxPoint x="310" y="270" as="sourcePoint" />
            <mxPoint x="360" y="220" as="targetPoint" />
          </mxGeometry>
        </mxCell>
        <mxCell id="NuhmkIVnOI-tYHkNNn2N-17" value="" style="endArrow=none;html=1;rounded=0;entryX=0.5;entryY=1;entryDx=0;entryDy=0;exitX=0.5;exitY=0.5;exitDx=0;exitDy=0;exitPerimeter=0;labelBackgroundColor=none;strokeColor=#182E3E;fontColor=default;" parent="1" source="NuhmkIVnOI-tYHkNNn2N-3" target="NuhmkIVnOI-tYHkNNn2N-10" edge="1">
          <mxGeometry width="50" height="50" relative="1" as="geometry">
            <mxPoint x="310" y="270" as="sourcePoint" />
            <mxPoint x="360" y="220" as="targetPoint" />
          </mxGeometry>
        </mxCell>
        <mxCell id="NuhmkIVnOI-tYHkNNn2N-18" value="" style="endArrow=none;html=1;rounded=0;entryX=1;entryY=0.5;entryDx=0;entryDy=0;exitX=0.5;exitY=0.5;exitDx=0;exitDy=0;exitPerimeter=0;labelBackgroundColor=none;strokeColor=#182E3E;fontColor=default;" parent="1" source="NuhmkIVnOI-tYHkNNn2N-3" target="NuhmkIVnOI-tYHkNNn2N-7" edge="1">
          <mxGeometry width="50" height="50" relative="1" as="geometry">
            <mxPoint x="340" y="160" as="sourcePoint" />
            <mxPoint x="390" y="110" as="targetPoint" />
          </mxGeometry>
        </mxCell>
        <mxCell id="NuhmkIVnOI-tYHkNNn2N-19" value="" style="endArrow=none;html=1;rounded=0;entryX=0.5;entryY=1;entryDx=0;entryDy=0;exitX=0.5;exitY=0.5;exitDx=0;exitDy=0;exitPerimeter=0;labelBackgroundColor=none;strokeColor=#182E3E;fontColor=default;" parent="1" source="NuhmkIVnOI-tYHkNNn2N-2" target="NuhmkIVnOI-tYHkNNn2N-6" edge="1">
          <mxGeometry width="50" height="50" relative="1" as="geometry">
            <mxPoint x="40" y="270" as="sourcePoint" />
            <mxPoint x="90" y="220" as="targetPoint" />
          </mxGeometry>
        </mxCell>
        <mxCell id="NuhmkIVnOI-tYHkNNn2N-20" value="" style="endArrow=none;html=1;rounded=0;entryX=0;entryY=0.5;entryDx=0;entryDy=0;exitX=0.5;exitY=0.5;exitDx=0;exitDy=0;exitPerimeter=0;labelBackgroundColor=none;strokeColor=#182E3E;fontColor=default;" parent="1" source="NuhmkIVnOI-tYHkNNn2N-2" target="NuhmkIVnOI-tYHkNNn2N-5" edge="1">
          <mxGeometry width="50" height="50" relative="1" as="geometry">
            <mxPoint x="170" y="320" as="sourcePoint" />
            <mxPoint x="220" y="270" as="targetPoint" />
          </mxGeometry>
        </mxCell>
        <mxCell id="NuhmkIVnOI-tYHkNNn2N-21" value="" style="endArrow=none;html=1;rounded=0;entryX=0.5;entryY=0.5;entryDx=0;entryDy=0;entryPerimeter=0;exitX=0;exitY=0.5;exitDx=0;exitDy=0;labelBackgroundColor=none;strokeColor=#182E3E;fontColor=default;" parent="1" source="NuhmkIVnOI-tYHkNNn2N-4" target="NuhmkIVnOI-tYHkNNn2N-2" edge="1">
          <mxGeometry width="50" height="50" relative="1" as="geometry">
            <mxPoint x="170" y="320" as="sourcePoint" />
            <mxPoint x="220" y="270" as="targetPoint" />
          </mxGeometry>
        </mxCell>
        <mxCell id="NuhmkIVnOI-tYHkNNn2N-22" value="" style="endArrow=none;html=1;rounded=0;entryX=0.5;entryY=0.5;entryDx=0;entryDy=0;entryPerimeter=0;exitX=0;exitY=0;exitDx=0;exitDy=0;labelBackgroundColor=none;strokeColor=#182E3E;fontColor=default;" parent="1" source="NuhmkIVnOI-tYHkNNn2N-15" target="NuhmkIVnOI-tYHkNNn2N-2" edge="1">
          <mxGeometry width="50" height="50" relative="1" as="geometry">
            <mxPoint x="170" y="320" as="sourcePoint" />
            <mxPoint x="220" y="270" as="targetPoint" />
          </mxGeometry>
        </mxCell>
        <mxCell id="NuhmkIVnOI-tYHkNNn2N-23" value="" style="endArrow=none;html=1;rounded=0;entryX=0.5;entryY=1;entryDx=0;entryDy=0;exitX=0.5;exitY=0.5;exitDx=0;exitDy=0;exitPerimeter=0;labelBackgroundColor=none;strokeColor=#182E3E;fontColor=default;" parent="1" source="NuhmkIVnOI-tYHkNNn2N-1" target="NuhmkIVnOI-tYHkNNn2N-12" edge="1">
          <mxGeometry width="50" height="50" relative="1" as="geometry">
            <mxPoint x="460" y="340" as="sourcePoint" />
            <mxPoint x="510" y="290" as="targetPoint" />
          </mxGeometry>
        </mxCell>
        <mxCell id="NuhmkIVnOI-tYHkNNn2N-24" value="" style="endArrow=none;html=1;rounded=0;entryX=0;entryY=0.5;entryDx=0;entryDy=0;exitX=0.5;exitY=0.5;exitDx=0;exitDy=0;exitPerimeter=0;labelBackgroundColor=none;strokeColor=#182E3E;fontColor=default;" parent="1" source="NuhmkIVnOI-tYHkNNn2N-1" target="NuhmkIVnOI-tYHkNNn2N-13" edge="1">
          <mxGeometry width="50" height="50" relative="1" as="geometry">
            <mxPoint x="460" y="340" as="sourcePoint" />
            <mxPoint x="510" y="290" as="targetPoint" />
          </mxGeometry>
        </mxCell>
        <mxCell id="NuhmkIVnOI-tYHkNNn2N-25" value="" style="endArrow=none;html=1;rounded=0;entryX=0.5;entryY=0.5;entryDx=0;entryDy=0;entryPerimeter=0;exitX=0;exitY=0;exitDx=0;exitDy=0;labelBackgroundColor=none;strokeColor=#182E3E;fontColor=default;" parent="1" source="NuhmkIVnOI-tYHkNNn2N-11" target="NuhmkIVnOI-tYHkNNn2N-1" edge="1">
          <mxGeometry width="50" height="50" relative="1" as="geometry">
            <mxPoint x="460" y="340" as="sourcePoint" />
            <mxPoint x="510" y="290" as="targetPoint" />
          </mxGeometry>
        </mxCell>
        <mxCell id="3TxyQZ_KVv2NJPojGp84-1" value="Jefes de proyecto" style="text;html=1;align=center;verticalAlign=middle;resizable=0;points=[];autosize=1;strokeColor=none;fillColor=none;fontColor=#000000;" vertex="1" parent="1">
          <mxGeometry x="-80" y="280" width="120" height="30" as="geometry" />
        </mxCell>
        <mxCell id="3TxyQZ_KVv2NJPojGp84-2" value="&lt;font style=&quot;color: rgb(0, 0, 0);&quot;&gt;Administradores&lt;/font&gt;" style="text;html=1;align=center;verticalAlign=middle;resizable=0;points=[];autosize=1;strokeColor=none;fillColor=none;fontColor=#FFFFFF;" vertex="1" parent="1">
          <mxGeometry x="320" y="320" width="110" height="30" as="geometry" />
        </mxCell>
        <mxCell id="3TxyQZ_KVv2NJPojGp84-5" value="&lt;font style=&quot;color: rgb(0, 0, 0);&quot;&gt;Empleados&lt;/font&gt;" style="text;html=1;align=center;verticalAlign=middle;resizable=0;points=[];autosize=1;strokeColor=none;fillColor=none;fontColor=#FFFFFF;" vertex="1" parent="1">
          <mxGeometry x="380" y="48" width="80" height="30" as="geometry" />
        </mxCell>
      </root>
    </mxGraphModel>
  </diagram>
</mxfile>
